<svg width="44" height="44" viewBox="0 0 44 44" fill="none" xmlns="http://www.w3.org/2000/svg">
<g clip-path="url(#clip0_24_2)">
<path d="M21.89 43.5746C9.91353 43.5746 0.205383 33.8665 0.205383 21.89C0.205383 9.9135 9.91353 0.205353 21.89 0.205353C33.8665 0.205353 43.5747 9.9135 43.5747 21.89C43.5747 33.8665 33.8665 43.5746 21.89 43.5746Z" stroke="#1E1E1E" stroke-width="0.43" stroke-miterlimit="10"/>
<path d="M16.6066 17.5867H12.6299V30.4406H16.6066V17.5867Z" fill="#1E1E1E"/>
<path d="M14.5996 15.9064C15.8971 15.9064 16.9519 14.8423 16.9519 13.5354C16.9519 12.2285 15.8971 11.1644 14.5996 11.1644C13.302 11.1644 12.2472 12.2285 12.2472 13.5354C12.2472 14.8423 13.302 15.9064 14.5996 15.9064Z" fill="#1E1E1E"/>
<path d="M22.9728 23.7009C22.9728 21.89 23.8036 20.8165 25.3999 20.8165C26.8654 20.8165 27.5655 21.8527 27.5655 23.7009V30.45H31.5235V22.3101C31.5235 18.8655 29.5725 17.2039 26.8467 17.2039C24.121 17.2039 22.9728 19.3323 22.9728 19.3323V17.596H19.1549V30.45H22.9728V23.7009Z" fill="#1E1E1E"/>
</g>
<defs>
<clipPath id="clip0_24_2">
<rect width="43.78" height="43.78" fill="white"/>
</clipPath>
</defs>
</svg>
