<svg width="45" height="45" viewBox="0 0 45 45" fill="none" xmlns="http://www.w3.org/2000/svg">
<path d="M22.2078 44.1171C10.1189 44.1171 0.31958 34.317 0.31958 22.227C0.31958 10.1371 10.1189 0.336975 22.2078 0.336975C34.2967 0.336975 44.0959 10.1371 44.0959 22.227C44.0959 34.317 34.2967 44.1171 22.2078 44.1171Z" stroke="#1E1E1E" stroke-width="0.43" stroke-miterlimit="10"/>
<path fill-rule="evenodd" clip-rule="evenodd" d="M19.7719 24.0079L11.0356 30.3378H33.6706L24.9338 24.0079L23.3446 25.4747C23.0689 25.729 22.7106 25.8559 22.3539 25.8559C21.9972 25.8559 21.6373 25.7285 21.3632 25.4747L19.7724 24.0079H19.7719Z" fill="#1E1E1E"/>
<path fill-rule="evenodd" clip-rule="evenodd" d="M10.2605 29.8502L19.1351 23.4213L10.1505 15.1301C10.1489 15.1487 10.1489 15.169 10.1489 15.1876V29.4099C10.1489 29.5696 10.1893 29.7183 10.2605 29.8502Z" fill="#1E1E1E"/>
<path fill-rule="evenodd" clip-rule="evenodd" d="M10.6013 14.3904L20.0372 23.0966C20.0793 23.1245 20.1165 23.1584 20.1488 23.1989C20.1504 23.2022 20.1521 23.2033 20.1532 23.2066L21.9365 24.85C22.0481 24.9539 22.2002 25.0048 22.3534 25.0048C22.5066 25.0048 22.6575 24.9534 22.7691 24.85L34.1044 14.3915C33.9649 14.3078 33.8019 14.2581 33.6285 14.2581H11.0777C10.9038 14.2581 10.7413 14.3062 10.6018 14.3899L10.6013 14.3904Z" fill="#1E1E1E"/>
<path fill-rule="evenodd" clip-rule="evenodd" d="M34.5562 15.1301L25.5716 23.4213L34.4463 29.8502C34.5174 29.72 34.5579 29.5696 34.5579 29.4099V15.1876C34.5579 15.169 34.5579 15.1504 34.5562 15.1301Z" fill="#1E1E1E"/>
</svg>
