<svg width="45" height="45" viewBox="0 0 45 45" fill="none" xmlns="http://www.w3.org/2000/svg">
<g id="Group">
<path id="Vector" d="M22.6908 44.7801C10.6009 44.7801 0.800781 34.98 0.800781 22.89C0.800781 10.8001 10.6009 1 22.6908 1C34.7808 1 44.5809 10.8001 44.5809 22.89C44.5809 34.98 34.7808 44.7801 22.6908 44.7801Z" stroke="#1E1E1E" stroke-width="0.43" stroke-miterlimit="10"/>
<path id="Vector_2" fill-rule="evenodd" clip-rule="evenodd" d="M32.0857 26.9324C31.5674 26.678 29.042 25.4436 28.5709 25.274C28.0997 25.0949 27.7511 25.0195 27.4118 25.5284C27.0726 26.0372 26.0737 27.1869 25.7816 27.5167C25.4801 27.8559 25.1879 27.903 24.6602 27.6486C24.1514 27.3942 22.4929 26.8665 20.5235 25.1138C19.0063 23.7662 17.9604 22.0983 17.6682 21.5895C17.3761 21.0806 17.64 20.8074 17.8944 20.5529C18.13 20.3174 18.4033 19.9499 18.6671 19.6577C18.7331 19.5729 18.799 19.4881 18.8556 19.4127C18.9781 19.2243 19.0629 19.0452 19.176 18.8002C19.355 18.461 19.2608 18.1595 19.1383 17.905C19.0063 17.6506 17.9792 15.1346 17.5458 14.1169C17.1217 13.0992 16.6882 13.2688 16.3867 13.2688C16.0852 13.2688 15.7459 13.2217 15.4067 13.2217C15.0675 13.2217 14.5021 13.3536 14.0309 13.8625C13.5597 14.3713 12.2311 15.6058 12.2311 18.1218C12.2311 18.7154 12.3347 19.2997 12.4949 19.8556C13.0132 21.6555 14.1346 23.1349 14.3324 23.3893C14.5869 23.7191 17.885 29.0432 23.1054 31.0975C28.3353 33.1329 28.3353 32.4544 29.2776 32.3602C30.2199 32.2848 32.3213 31.1352 32.7453 29.9384C33.1788 28.7511 33.1788 27.7334 33.0469 27.5167C32.915 27.3094 32.5757 27.1869 32.0669 26.923L32.0857 26.9324Z" fill="#1E1E1E"/>
</g>
</svg>
